<svg width="136" height="96" viewBox="0 0 136 96" fill="none" xmlns="http://www.w3.org/2000/svg">
<g filter="url(#filter0_d_225_78)">
<path d="M63.4561 72.552V47.88H71.8081V72.936C71.8081 73.288 71.9841 73.464 72.3361 73.464H81.2641C81.6161 73.464 81.7921 73.288 81.7921 72.936V47.88H90.1441V72.552C90.1441 78.184 87.3281 81 81.6961 81H71.9041C66.2721 81 63.4561 78.184 63.4561 72.552Z" fill="white"/>
<path d="M96.6814 72.936V47.88H104.697V55.464H112.521V62.424H104.697V73.416C104.697 73.832 104.905 74.04 105.321 74.04H113.001V78.504L109.641 81H104.745C99.3694 81 96.6814 78.312 96.6814 72.936Z" fill="white"/>
<path d="M117.918 51.528V44.088H126.126V51.528H117.918ZM118.014 81V55.464H126.03V81H118.014Z" fill="white"/>
<path d="M7.45605 5.38H5.95605V6.88V31.552C5.95605 34.5992 6.71887 37.1601 8.50739 38.9487C10.2959 40.7372 12.8568 41.5 15.9041 41.5H25.6961C28.7433 41.5 31.3042 40.7372 33.0927 38.9487C34.8812 37.1601 35.6441 34.5992 35.6441 31.552V6.88V5.38H34.1441H25.7921H24.2921V6.88V30.964H17.3081V6.88V5.38H15.8081H7.45605ZM39.3734 40V41.5H40.8734H48.8894H50.3894V40V22.924H53.7254V40V41.5H55.2254H63.2414H64.7414V40V22.528C64.7414 19.6088 64.0106 17.1439 62.2861 15.4193C60.5616 13.6948 58.0966 12.964 55.1774 12.964H40.8734H39.3734V14.464V40ZM67.9649 10.528V12.028H69.4649H77.6729H79.1729V10.528V3.088V1.588H77.6729H69.4649H67.9649V3.088V10.528ZM68.0609 40V41.5H69.5609H77.5769H79.0769V40V14.464V12.964H77.5769H69.5609H68.0609V14.464V40Z" stroke="#FEFEF9" stroke-width="3"/>
</g>
<defs>
<filter id="filter0_d_225_78" x="0.456055" y="0.0879974" width="139.544" height="103.912" filterUnits="userSpaceOnUse" color-interpolation-filters="sRGB">
<feFlood flood-opacity="0" result="BackgroundImageFix"/>
<feColorMatrix in="SourceAlpha" type="matrix" values="0 0 0 0 0 0 0 0 0 0 0 0 0 0 0 0 0 0 127 0" result="hardAlpha"/>
<feOffset dy="4"/>
<feGaussianBlur stdDeviation="2"/>
<feComposite in2="hardAlpha" operator="out"/>
<feColorMatrix type="matrix" values="0 0 0 0 0 0 0 0 0 0 0 0 0 0 0 0 0 0 0.25 0"/>
<feBlend mode="normal" in2="BackgroundImageFix" result="effect1_dropShadow_225_78"/>
<feBlend mode="normal" in="SourceGraphic" in2="effect1_dropShadow_225_78" result="shape"/>
</filter>
</defs>
</svg>
