<svg width="133" height="93" viewBox="0 0 133 93" fill="none" xmlns="http://www.w3.org/2000/svg">
<g filter="url(#filter0_d_225_78)">
<path d="M60.456 69.552V44.88H68.808V69.936C68.808 70.288 68.984 70.464 69.336 70.464H78.264C78.616 70.464 78.792 70.288 78.792 69.936V44.88H87.144V69.552C87.144 75.184 84.328 78 78.696 78H68.904C63.272 78 60.456 75.184 60.456 69.552ZM93.6814 69.936V44.88H101.697V52.464H109.521V59.424H101.697V70.416C101.697 70.832 101.905 71.04 102.321 71.04H110.001V75.504L106.641 78H101.745C96.3694 78 93.6814 75.312 93.6814 69.936ZM114.918 48.528V41.088H123.126V48.528H114.918ZM115.014 78V52.464H123.03V78H115.014Z" fill="white"/>
<path d="M4.456 3.88V0.879997H1.456V3.88H4.456ZM12.808 3.88H15.808V0.879997H12.808V3.88ZM22.792 3.88V0.879997H19.792V3.88H22.792ZM31.144 3.88H34.144V0.879997H31.144V3.88ZM7.456 28.552V3.88H1.456V28.552H7.456ZM4.456 6.88H12.808V0.879997H4.456V6.88ZM9.808 3.88V28.936H15.808V3.88H9.808ZM9.808 28.936C9.808 29.5744 9.96964 30.6043 10.8187 31.4533C11.6677 32.3024 12.6976 32.464 13.336 32.464V26.464C13.6224 26.464 14.3883 26.5376 15.0613 27.2107C15.7344 27.8837 15.808 28.6496 15.808 28.936H9.808ZM13.336 32.464H22.264V26.464H13.336V32.464ZM22.264 32.464C22.9024 32.464 23.9323 32.3024 24.7813 31.4533C25.6304 30.6043 25.792 29.5744 25.792 28.936H19.792C19.792 28.6496 19.8656 27.8837 20.5387 27.2107C21.2117 26.5376 21.9776 26.464 22.264 26.464V32.464ZM25.792 28.936V3.88H19.792V28.936H25.792ZM22.792 6.88H31.144V0.879997H22.792V6.88ZM28.144 3.88V28.552H34.144V3.88H28.144ZM28.144 28.552C28.144 30.9056 27.5576 32.1197 26.9107 32.7667C26.2637 33.4136 25.0496 34 22.696 34V40C25.9744 40 28.9843 39.1784 31.1533 37.0093C33.3224 34.8403 34.144 31.8304 34.144 28.552H28.144ZM22.696 34H12.904V40H22.696V34ZM12.904 34C10.5504 34 9.33628 33.4136 8.68932 32.7667C8.04236 32.1197 7.456 30.9056 7.456 28.552H1.456C1.456 31.8304 2.27764 34.8403 4.44668 37.0093C6.61572 39.1784 9.62557 40 12.904 40V34ZM37.8734 37H34.8734V40H37.8734V37ZM37.8734 11.464V8.464H34.8734V11.464H37.8734ZM60.2414 37V40H63.2414V37H60.2414ZM52.2254 37H49.2254V40H52.2254V37ZM45.8894 18.424V15.424H42.8894V18.424H45.8894ZM45.8894 37V40H48.8894V37H45.8894ZM40.8734 37V11.464H34.8734V37H40.8734ZM37.8734 14.464H52.1774V8.464H37.8734V14.464ZM52.1774 14.464C54.4029 14.464 55.5211 15.0184 56.1041 15.6013C56.687 16.1843 57.2414 17.3024 57.2414 19.528H63.2414C63.2414 16.3776 62.4517 13.4637 60.3467 11.3587C58.2417 9.25364 55.3278 8.464 52.1774 8.464V14.464ZM57.2414 19.528V37H63.2414V19.528H57.2414ZM60.2414 34H52.2254V40H60.2414V34ZM55.2254 37V19.048H49.2254V37H55.2254ZM55.2254 19.048C55.2254 18.3776 55.0557 17.3237 54.1907 16.4587C53.3257 15.5936 52.2718 15.424 51.6014 15.424V21.424C51.3469 21.424 50.6051 21.3584 49.9481 20.7013C49.291 20.0443 49.2254 19.3024 49.2254 19.048H55.2254ZM51.6014 15.424H45.8894V21.424H51.6014V15.424ZM42.8894 18.424V37H48.8894V18.424H42.8894ZM45.8894 34H37.8734V40H45.8894V34ZM66.4649 7.528H63.4649V10.528H66.4649V7.528ZM66.4649 0.0879974V-2.912H63.4649V0.0879974H66.4649ZM74.6729 0.0879974H77.6729V-2.912H74.6729V0.0879974ZM74.6729 7.528V10.528H77.6729V7.528H74.6729ZM66.5609 37H63.5609V40H66.5609V37ZM66.5609 11.464V8.464H63.5609V11.464H66.5609ZM74.5769 11.464H77.5769V8.464H74.5769V11.464ZM74.5769 37V40H77.5769V37H74.5769ZM69.4649 7.528V0.0879974H63.4649V7.528H69.4649ZM66.4649 3.088H74.6729V-2.912H66.4649V3.088ZM71.6729 0.0879974V7.528H77.6729V0.0879974H71.6729ZM74.6729 4.528H66.4649V10.528H74.6729V4.528ZM69.5609 37V11.464H63.5609V37H69.5609ZM66.5609 14.464H74.5769V8.464H66.5609V14.464ZM71.5769 11.464V37H77.5769V11.464H71.5769ZM74.5769 34H66.5609V40H74.5769V34Z" fill="#FEFEF9"/>
</g>
<defs>
<filter id="filter0_d_225_78" x="0" y="0.0879974" width="137" height="100.912" filterUnits="userSpaceOnUse" color-interpolation-filters="sRGB">
<feFlood flood-opacity="0" result="BackgroundImageFix"/>
<feColorMatrix in="SourceAlpha" type="matrix" values="0 0 0 0 0 0 0 0 0 0 0 0 0 0 0 0 0 0 127 0" result="hardAlpha"/>
<feOffset dy="4"/>
<feGaussianBlur stdDeviation="2"/>
<feComposite in2="hardAlpha" operator="out"/>
<feColorMatrix type="matrix" values="0 0 0 0 0 0 0 0 0 0 0 0 0 0 0 0 0 0 0.25 0"/>
<feBlend mode="normal" in2="BackgroundImageFix" result="effect1_dropShadow_225_78"/>
<feBlend mode="normal" in="SourceGraphic" in2="effect1_dropShadow_225_78" result="shape"/>
</filter>
</defs>
</svg>
